<?xml version="1.0" encoding="iso-8859-1"?>
<!-- Uploaded to: SVG Repo, www.svgrepo.com, Generator: SVG Repo Mixer Tools -->
<svg fill="#000000" height="800px" width="800px" version="1.1" id="Capa_1" xmlns="http://www.w3.org/2000/svg" xmlns:xlink="http://www.w3.org/1999/xlink" 
	 viewBox="0 0 331.436 331.436" xml:space="preserve">
<path d="M265.383,69.207c-16.267,1.203-32.665,4.983-47.746,11.159c12.002-0.485,24.219,1.38,35.532,5.366
	c9.865,3.476,19.287,8.753,26.731,16.174c4.496,4.482,7.678,9.467,10.535,15.082c0.037,0.066,0.086,0.161,0.156,0.312
	c0.495,1.232,3.53,6.887,0.223,6.744c-0.804-0.034-1.747-0.678-2.441-0.997c-3.107-1.431-6.2-2.872-9.366-4.171
	c-6.604-2.711-13.27-5.067-20.085-7.178c-10.553-3.27-21.741-5.281-32.743-6.093c25.956,10.075,52.35,33.788,54.005,63.273
	c0.187,3.338,0.025,6.695-0.506,9.997c-0.238,1.481-1.781,2.434-3.211,1.989c-1.588-0.494-2.731-2.774-3.718-4.003
	c-4.623-5.753-9.52-11.289-14.735-16.512c-9.996-10.012-21.183-18.807-33.428-25.91c9.506,12.397,16.366,27.276,18.754,42.761
	c2.199,14.261,0.395,29.636-7.913,41.754c-0.944,1.377-2.029,3.385-4.03,2.882c-1.817-0.456-1.898-2.291-2.162-3.814
	c-0.609-3.52-1.297-7.026-2.073-10.512c-1.542-6.93-3.435-13.784-5.747-20.497c-4.473-12.994-10.611-25.13-18.098-36.383
	c-0.07,1.291-0.561,2.456-1.523,3.222c-2.112,1.682-5.59,0.831-7.764-1.899c-2.175-2.73-2.224-6.31-0.111-7.992
	c1.163-0.926,2.74-1.082,4.285-0.582c-1.054-1.42-2.129-2.823-3.226-4.212c0.074,2.297-0.944,4.316-2.773,5.041
	c-2.511,0.995-5.59-0.827-6.878-4.073c-1.286-3.246-0.293-6.685,2.219-7.682c0.526-0.209,1.077-0.286,1.632-0.26
	c-3.576-4.088-7.341-8.03-11.277-11.826c-0.27,0.668-0.553,1.387-0.867,2.145c-0.263,0.644-0.539,1.324-0.829,2.035
	c-0.27,0.735-0.528,1.531-0.811,2.343c-0.28,0.813-0.571,1.66-0.873,2.538c-0.15,0.438-0.303,0.884-0.459,1.338
	c-0.139,0.471-0.279,0.95-0.422,1.436c-0.364,1.281-0.771,2.595-1.169,3.969c0.611-0.088,1.227-0.049,1.822,0.15
	c2.562,0.859,3.74,4.237,2.631,7.548c-1.109,3.31-4.083,5.3-6.647,4.441c-0.265-0.089-0.511-0.21-0.745-0.35
	c-0.379,1.688-0.764,3.402-1.122,5.194c-0.511,2.717-1.098,5.482-1.594,8.385c-1.016,5.791-1.988,11.932-2.845,18.338
	c-0.422,3.206-0.87,6.45-1.236,9.773c-0.396,3.308-0.777,6.66-1.109,10.058c-0.364,3.384-0.681,6.812-0.984,10.255
	c-0.327,3.432-0.585,6.904-0.862,10.363c-0.54,6.925-0.979,13.871-1.378,20.709c-0.37,6.846-0.697,13.585-0.947,20.115
	c-0.507,13.06-0.781,25.264-0.915,35.714c-0.084,6.473-0.111,12.274-0.109,17.19c3.016,0.336,6.022,0.744,9.01,1.242
	c8.277,1.378,16.446,3.417,24.357,6.223c3.609,1.279,7.164,2.72,10.622,4.366c1.398,0.666,7.581,2.943,7.581,4.661
	c0,0.19,0.063,0.564,0.066,0.89H66.984c-0.009-0.533,0.017-1.256,0.017-1.408c9.325-6.071,20.303-9.981,31.368-12.57
	c0.019-0.115,0.038-0.225,0.058-0.342c1.097-6.278,2.706-15.189,4.788-25.835c2.08-10.647,4.623-23.034,7.567-36.266
	c1.468-6.615,3.056-13.443,4.709-20.37c1.682-6.928,3.426-13.954,5.277-20.969c0.933-3.507,1.844-7.011,2.827-10.498
	c0.957-3.486,1.927-6.956,2.942-10.395c0.98-3.437,2.009-6.846,3.046-10.208c1.004-3.362,2.091-6.68,3.14-9.938
	c2.111-6.516,4.31-12.796,6.503-18.727c1.082-2.966,2.258-5.845,3.327-8.622c1.104-2.779,2.278-5.455,3.345-8.018
	c1.105-2.563,2.276-5.012,3.328-7.332c1.072-2.322,2.245-4.513,3.263-6.567c0.26-0.513,0.515-1.017,0.766-1.514
	c0.277-0.494,0.548-0.98,0.815-1.458c0.535-0.953,1.051-1.871,1.547-2.753c0.5-0.879,0.96-1.722,1.436-2.525
	c0.508-0.8,0.991-1.562,1.451-2.286c0.099-0.153,0.19-0.297,0.286-0.447c-4.492,0.51-8.97,1.107-13.421,1.935
	c-3.829,0.713-7.668,1.491-11.472,2.406c2.98,0.236,5.346,2.104,5.482,4.51c0.153,2.696-2.548,5.046-6.033,5.245
	c-3.487,0.199-6.436-1.829-6.591-4.527c-0.087-1.536,0.754-2.957,2.137-3.935c-1.768,0.495-3.524,1.026-5.263,1.604
	c-1.222,0.406-2.42,0.846-3.627,1.276c3.247,0.57,5.574,2.985,5.259,5.558c-0.329,2.683-3.406,4.512-6.872,4.085
	c-3.464-0.427-6.007-2.943-5.678-5.627c0.064-0.517,0.232-1.003,0.484-1.447c-12.495,5.014-24.227,11.327-35.373,19.132
	c-7.867,5.508-15.066,11.853-22.151,18.317c-3.316,3.025-2.539-4.947-2.455-6.083c0.397-2.472,0.769-4.89,1.387-7.316
	c1.41-5.271,3.669-10.274,6.604-14.878c12.805-20.094,36.086-33.072,59.274-37.182c-17.617-2.753-35.296-2.426-52.883,0.22
	c-8.521,1.283-16.867,3.361-25.185,5.562c-1.267,0.335-4.429,0.507-3.083-1.819c1.758-3.018,3.479-6.082,5.803-8.718
	c3.693-4.188,7.718-7.82,12.455-10.836c20.343-12.953,47.616-14.181,70.406-7.509c-7.975-6.142-16.473-11.712-25.478-16.24
	c-8.539-4.293-17.284-8.014-26.315-11.154c-1.273-0.443-3.419-0.737-4.466-1.682c-2.681-2.423,5.375-4.88,6.717-5.378
	c3.763-1.396,7.915-2.502,11.942-2.75c24.023-1.481,47.414,9.844,63.94,26.954c-10.057-19.193-23.53-35.852-39.701-50.228
	c-2.45-2.18-4.928-4.297-7.451-6.393c-0.886-0.736-2.682-1.763-3.242-2.845c-1.606-3.103,6.684-2.616,8.059-2.618
	c13.453-0.029,26.261,5.785,36.653,14.066c18.573,14.801,31.207,37.451,34.11,60.963c19.781-20.51,52.465-30.808,80.352-25.176
	c6.017,1.215,11.705,3.473,17.05,6.444c1.852,1.031,3.691,2.269,5.348,3.598c1.525,1.223,7.782,5.535,6.821,7.809
	c-0.89,2.103-7.84,0.827-9.64,0.795C276.927,68.422,271.133,68.781,265.383,69.207z M184.987,132.011
	c0-3.492-2.19-6.322-4.892-6.322s-4.892,2.83-4.892,6.322c0,3.492,2.19,6.322,4.892,6.322S184.987,135.502,184.987,132.011z
	 M181.523,152.451c2.702,0,4.893-2.831,4.893-6.322c0-3.492-2.191-6.322-4.893-6.322s-4.893,2.83-4.893,6.322
	C176.63,149.62,178.821,152.451,181.523,152.451z M190.016,161.481c2.681-0.333,4.506-3.412,4.075-6.877
	c-0.431-3.465-2.953-6.004-5.634-5.671s-4.506,3.412-4.075,6.877C184.813,159.276,187.335,161.815,190.016,161.481z
	 M182.303,169.003c2.683-0.334,4.507-3.414,4.076-6.878c-0.431-3.464-2.956-6.002-5.636-5.671c-2.68,0.333-4.506,3.414-4.073,6.882
	C177.1,166.798,179.622,169.337,182.303,169.003z M169.06,152.854c-1.681,3.059-1.124,6.594,1.243,7.896
	c2.37,1.301,5.653-0.125,7.333-3.185c1.681-3.063,1.124-6.598-1.243-7.897C174.022,148.367,170.739,149.791,169.06,152.854z
	 M148.35,124.454c3.243-1.295,5.059-4.378,4.055-6.888c-1.001-2.51-4.443-3.492-7.686-2.197c-3.242,1.295-5.057,4.379-4.055,6.887
	C141.665,124.767,145.107,125.751,148.35,124.454z M137.528,135.189c1.857,1.964,5.419,1.61,7.956-0.789s3.089-5.936,1.232-7.9
	c-1.857-1.964-5.419-1.61-7.956,0.789S135.671,133.225,137.528,135.189z M127.89,127.046c-3.242,1.294-5.059,4.381-4.055,6.886
	c1.002,2.512,4.443,3.496,7.686,2.202c3.243-1.295,5.059-4.382,4.056-6.89C134.574,126.736,131.132,125.751,127.89,127.046z
	 M133.728,140.271c-1.729,3.033-1.228,6.578,1.12,7.916c2.348,1.339,5.653-0.036,7.382-3.069s1.228-6.578-1.12-7.916
	C138.763,135.863,135.458,137.237,133.728,140.271z M123.968,139.316c-3.059,1.686-4.48,4.972-3.175,7.339
	c1.305,2.367,4.842,2.919,7.901,1.232c3.058-1.686,4.48-4.972,3.175-7.339C130.563,138.181,127.026,137.63,123.968,139.316z
	 M115.183,133.462c-3.057,1.686-4.477,4.971-3.172,7.337c1.305,2.366,4.841,2.918,7.898,1.232s4.477-4.971,3.172-7.337
	C121.776,132.328,118.24,131.776,115.183,133.462z"/>
</svg>